# xmcd
#
# Track frame offsets:
#	150
#	26559
#	40480
#	53516
#	71342
#	85188
#	104861
#	117795
#	140876
#	153568
#	167832
#	186902
#	198912
#	208602
#	221663
#	239741
#	257114
#	273368
#	291343
#	306995
#
# Disc length: 4314 seconds
#
# Revision: 0
# Processed by: cddbd v1.5.2PL0 Copyright (c) Steve Scherf et al.
# Submitted via: audiograbber 1.83.01
#
DISCID=3c10d814
DTITLE=Wolfgang Ambros - Zwickt's mi  - 42 große Erfolge Disc 2
DYEAR=1900
DGENRE=Pop
TTITLE0=Allan wia a Stan (Like a Rolling Stone)
TTITLE1=I bin's ned (It Ain't Me Babe)
TTITLE2=De No 1 vom Wienerwald
TTITLE3=Heite drah i mi ham
TTITLE4=I steh auf a Alte
TTITLE5=Fesch san ma beinand
TTITLE6=I wü frei sein
TTITLE7=Gezeichnet fürs Leben
TTITLE8=Minderheit
TTITLE9=Wem heut net schlecht is
TTITLE10=Gö, do schaust
TTITLE11=Des kannst net machn
TTITLE12=Corrina, Corrina
TTITLE13=A Mensch möcht i bleibn
TTITLE14=Wolfgang Amadeus Mozart
TTITLE15=De Höld'n san scho alle tot
TTITLE16=Schaffnerlos
TTITLE17=Denk amoi
TTITLE18=Baba und foi ned
TTITLE19=Zwickt's mi (österr. Version)
EXTD=
EXTT0=
EXTT1=
EXTT2=
EXTT3=
EXTT4=
EXTT5=
EXTT6=
EXTT7=
EXTT8=
EXTT9=
EXTT10=
EXTT11=
EXTT12=
EXTT13=
EXTT14=
EXTT15=
EXTT16=
EXTT17=
EXTT18=
EXTT19=
PLAYORDER=
